<svg width="122" height="122" xmlns="http://www.w3.org/2000/svg" xmlns:xlink="http://www.w3.org/1999/xlink" xml:space="preserve" overflow="hidden"><g transform="translate(-914 -290)"><g><g><g><g><path d="M1023.81 351.54C1025.4 361.26 1016.96 366.74 1008.41 367.37 1003 378.56 983.77 386.11 967.15 378 960.05 379.08 956.15 377.3 953.15 373.9 959.23 366.08 977.64 351.99 1000.15 359.26 1012.15 363.14 1015.28 354.02 1012.25 350.6 1000.93 337.74 975.34 349.32 974.42 350.28 984.45 334.89 1020.39 330.57 1023.81 351.54ZM989.37 333.87C989.43 333.87 981.2 330.95 969.69 335.92 969.227 335.747 968.773 335.55 968.33 335.33 979.4 328 989.1 324.85 997.4 326.07 992.4 320.28 968.23 316.07 954.4 329.89 937.3 326.53 925.34 341 926 354.25 926.66 367.5 941.14 375.72 949.36 373.49 949.559 373.465 949.761 373.465 949.96 373.49 951.79 364.75 959.22 344.4 989.37 333.87Z" fill="#236BF5" fill-rule="nonzero" fill-opacity="1"/></g></g></g></g></g></svg>